<?xml version="1.0" encoding="UTF-8"?>
<!DOCTYPE svg PUBLIC "-//W3C//DTD SVG 1.1//EN" "http://www.w3.org/Graphics/SVG/1.1/DTD/svg11.dtd">
<!-- Creator: CorelDRAW 2020 (Not for commercial use) -->
<svg xmlns="http://www.w3.org/2000/svg" xml:space="preserve" width="4in" height="7in" version="1.1" style="shape-rendering:geometricPrecision; text-rendering:geometricPrecision; image-rendering:optimizeQuality; fill-rule:evenodd; clip-rule:evenodd"
viewBox="0 0 877.49 1535.6"
 xmlns:xlink="http://www.w3.org/1999/xlink"
 xmlns:xodm="http://www.corel.com/coreldraw/odm/2003">
 <defs>
  <style type="text/css">
   <![CDATA[
    .fil1 {fill:none}
    .fil6 {fill:#FEFEFE}
    .fil0 {fill:#FF5300}
    .fil2 {fill:#FF7533}
    .fil3 {fill:#FF8C55}
    .fil4 {fill:#FF9C6D}
    .fil5 {fill:#FFA980}
   ]]>
  </style>
 </defs>
 <g id="Layer_x0020_1">
  <metadata id="CorelCorpID_0Corel-Layer"/>
  <g id="Monochrome_x0020_Logo_x0020_Light_x0020_Lineless">
   <g id="P">
    <path id="Color" class="fil0" d="M438.74 767.8l-284.97 -164.53 0 -329.06 284.97 -164.53 284.97 164.53 0 329.06 -284.97 164.53zm-438.74 -767.8l0 1535.6 329.06 0 0 -658.12 109.69 0c242.31,0 438.74,-196.43 438.74,-438.74 0,-242.31 -196.43,-438.74 -438.74,-438.74l-438.74 0z"/>
    <path id="Outline" class="fil1" d="M-0 1535.6l0 -1535.6 438.74 -0c242.31,0 438.74,196.43 438.74,438.74 0,242.31 -196.43,438.74 -438.74,438.74l-109.69 0 0 658.12 -329.06 0z"/>
   </g>
   <g id="d8">
    <g id="Color_0">
     <polygon class="fil2" points="723.72,603.27 438.74,603.27 153.77,603.27 438.74,767.8 "/>
     <polygon class="fil3" points="438.74,109.69 581.23,356.48 723.72,603.27 723.72,274.21 "/>
     <polygon class="fil4" points="296.26,356.48 438.74,109.69 153.77,274.21 153.77,603.27 "/>
     <g id="Face">
      <g>
       <path class="fil5" d="M153.77 603.27l284.97 0 284.97 0 -142.49 -246.79 -142.49 -246.79 -142.49 246.79 -142.49 246.79zm202.71 -123.4c0,-24.57 10.77,-46.62 27.85,-61.7 -17.08,-15.07 -27.85,-37.13 -27.85,-61.7 0,-45.43 36.83,-82.26 82.26,-82.26 45.43,0 82.26,36.83 82.26,82.26 0,24.57 -10.77,46.63 -27.85,61.7 17.08,15.07 27.85,37.13 27.85,61.7 0,45.43 -36.83,82.26 -82.26,82.26 -45.43,0 -82.26,-36.83 -82.26,-82.26z"/>
       <g>
        <path class="fil5" d="M479.88 479.88c0,-22.72 -18.42,-41.13 -41.13,-41.13 -22.72,0 -41.13,18.42 -41.13,41.13 0,22.72 18.42,41.13 41.13,41.13 22.72,0 41.13,-18.42 41.13,-41.13z"/>
        <path class="fil5" d="M438.74 397.61c22.72,0 41.13,-18.42 41.13,-41.13 0,-22.72 -18.42,-41.13 -41.13,-41.13 -22.72,0 -41.13,18.42 -41.13,41.13 0,22.72 18.42,41.13 41.13,41.13z"/>
       </g>
      </g>
      <path class="fil6" d="M479.88 356.48c0,22.72 -18.42,41.13 -41.13,41.13 -22.72,0 -41.13,-18.42 -41.13,-41.13 0,-22.72 18.42,-41.13 41.13,-41.13 22.72,0 41.13,18.42 41.13,41.13zm-41.13 82.26c22.72,0 41.13,18.42 41.13,41.13 0,22.72 -18.42,41.13 -41.13,41.13 -22.72,0 -41.13,-18.42 -41.13,-41.13 0,-22.72 18.42,-41.13 41.13,-41.13zm-82.26 41.13c0,45.43 36.83,82.26 82.26,82.26 45.43,0 82.26,-36.83 82.26,-82.26 0,-24.57 -10.77,-46.62 -27.85,-61.7 17.08,-15.07 27.85,-37.13 27.85,-61.7 0,-45.43 -36.83,-82.26 -82.26,-82.26 -45.43,0 -82.26,36.83 -82.26,82.26 0,24.57 10.77,46.63 27.85,61.7 -17.08,15.07 -27.85,37.13 -27.85,61.7z"/>
     </g>
    </g>
    <g id="Outline_1">
     <g>
      <polygon class="fil1" points="438.74,109.69 581.23,356.48 723.72,603.27 438.74,603.27 153.77,603.27 296.26,356.48 "/>
      <polygon class="fil1" points="153.77,603.27 153.77,274.21 438.74,109.69 723.72,274.21 723.72,603.27 438.74,767.8 "/>
     </g>
     <path class="fil1" d="M438.74 438.74c22.72,0 41.13,18.42 41.13,41.13 0,22.72 -18.42,41.13 -41.13,41.13 -22.72,0 -41.13,-18.42 -41.13,-41.13 0,-22.72 18.42,-41.13 41.13,-41.13zm82.26 41.13c0,-24.57 -10.77,-46.63 -27.85,-61.7 17.08,-15.07 27.85,-37.13 27.85,-61.7 0,-45.43 -36.83,-82.26 -82.26,-82.26 -45.43,0 -82.26,36.83 -82.26,82.26 0,24.57 10.77,46.62 27.85,61.7 -17.08,15.07 -27.85,37.13 -27.85,61.7 0,45.43 36.83,82.26 82.26,82.26 45.43,0 82.26,-36.83 82.26,-82.26zm-41.13 -123.4c0,22.72 -18.42,41.13 -41.13,41.13 -22.72,0 -41.13,-18.42 -41.13,-41.13 0,-22.72 18.42,-41.13 41.13,-41.13 22.72,0 41.13,18.42 41.13,41.13z"/>
    </g>
   </g>
  </g>
 </g>
</svg>
